<svg width="31" height="37" viewBox="0 0 31 37" fill="none" xmlns="http://www.w3.org/2000/svg">
<path d="M2.11589 5.42599C2.38239 4.69858 2.90206 3.92049 3.56106 3.27117C4.21865 2.62324 4.94574 2.17111 5.58986 1.99579C5.90367 1.9274 6.36192 1.95115 6.99464 2.10377C7.62424 2.25564 8.33033 2.51013 9.0962 2.81179C9.36246 2.91666 9.63912 3.029 9.92228 3.14397C10.9141 3.54668 11.9855 3.98173 12.9684 4.24163L14.2749 21.2554L16.269 21.2554L17.5761 4.23455C18.5497 3.97081 19.4888 3.56448 20.3546 3.18989C20.6278 3.07167 20.8937 2.95661 21.1511 2.8502C22.4706 2.30466 23.69 1.91784 25.0169 2.0137C25.6452 2.20062 26.3466 2.64424 26.9829 3.27117C27.6419 3.92048 28.1615 4.69856 28.428 5.42596C29.5286 8.43017 29.5438 11.7177 28.9406 15.2167C28.3363 18.7226 27.1259 22.3648 25.8382 26.0639C23.6182 32.4408 19.2806 35.1236 15.272 35.1236C11.2635 35.1236 6.92569 32.4408 4.70572 26.0639L3.76131 26.3927L4.70572 26.0639C3.41795 22.3648 2.20756 18.7226 1.6032 15.2167C1.00003 11.7177 1.01527 8.43019 2.11589 5.42599ZM2.11589 5.42599L1.17692 5.08199L2.11589 5.42599Z" stroke="white" stroke-width="2"/>
</svg>
