<svg width="41" height="39" viewBox="0 0 41 39" fill="none" xmlns="http://www.w3.org/2000/svg">
<path d="M10.042 1.13269H10.8773C15.2763 1.78636 16.4689 4.29495 20.3022 4.29495C24.1355 4.29495 25.3281 1.78636 29.728 1.13269H30.2012C31.3774 1.13269 32.542 1.36548 33.6287 1.81776C34.7153 2.27005 35.7026 2.93297 36.5343 3.76868C37.366 4.6044 38.0257 5.59653 38.4758 6.68844C38.9259 7.78036 39.1575 8.95066 39.1575 10.1325V10.7256C39.1575 13.4757 36.2444 16.6153 35.3865 19.59C34.4767 22.7484 33.8535 25.3309 33.6706 28.0318C33.2417 34.3611 31.094 37.1321 28.7871 37.1321C25.3422 37.1321 22.2839 22.9455 20.3616 22.9455C18.4383 22.9455 14.6248 37.1321 11.8172 37.1321C10.1042 37.1321 7.8859 36.1137 7.05249 28.0318C6.72064 24.8165 6.16063 22.8659 5.21786 19.59C4.38823 16.71 1.59009 13.2692 1.44679 10.1809C1.39273 9.01283 1.575 7.84593 1.98256 6.75072C2.39012 5.65551 3.01451 4.65474 3.81797 3.80894C4.62143 2.96314 5.58727 2.28988 6.65706 1.82989C7.72686 1.36989 8.87839 1.13271 10.042 1.13269Z" stroke="white" stroke-width="2"/>
</svg>
