<svg width="47" height="48" viewBox="0 0 47 48" fill="none" xmlns="http://www.w3.org/2000/svg">
<path d="M19 17C21 12.5 22.5 10.5 23 1C23.5 10.5 25 12.5 27 17" stroke="white" stroke-width="2" stroke-linecap="round"/>
<path d="M19.9094 27.8708L19.909 27.86L19.9088 27.8493L19.8654 24.9958L19.8652 24.9821L19.8653 24.9683C19.8907 22.9026 19.9149 20.0879 19.1178 17.7945C18.7258 16.6669 18.156 15.7319 17.3473 15.0782C16.552 14.4354 15.4466 14 13.8536 14C11.9245 14 9.90897 15.498 7.97869 18.2966C6.08612 21.0405 4.45931 24.7776 3.25036 28.6588C2.04303 32.5348 1.27288 36.4883 1.06006 39.6348C0.95339 41.2118 0.98967 42.5459 1.16256 43.5497C1.34569 44.6129 1.64196 45.0686 1.83225 45.2071C3.62049 46.5076 6.45058 46.8439 9.48338 46.3291C12.4907 45.8186 15.462 44.5071 17.3989 42.8168C18.8049 41.5895 19.5423 39.439 19.8594 36.779C20.1727 34.1517 20.0524 31.2616 19.9464 28.7627L19.9464 28.7626L19.9464 28.7623L19.9455 28.7411V28.7395C19.9443 28.7116 19.9431 28.6838 19.9419 28.6559C19.9303 28.3912 19.9188 28.1279 19.9094 27.8708Z" stroke="white" stroke-width="2"/>
<path d="M26.151 27.8708L26.1514 27.86L26.1516 27.8493L26.195 24.9958L26.1952 24.9821L26.195 24.9683C26.1696 22.9026 26.1455 20.0879 26.9426 17.7945C27.3345 16.6669 27.9043 15.7319 28.7131 15.0782C29.5083 14.4354 30.6138 14 32.2067 14C34.1359 14 36.1514 15.498 38.0817 18.2966C39.9742 21.0405 41.6011 24.7776 42.81 28.6588C44.0173 32.5348 44.7875 36.4883 45.0003 39.6348C45.107 41.2118 45.0707 42.5459 44.8978 43.5497C44.7147 44.6129 44.4184 45.0686 44.2281 45.2071C42.4399 46.5076 39.6098 46.8439 36.577 46.3291C33.5696 45.8186 30.5983 44.5071 28.6615 42.8168C27.2555 41.5895 26.5181 39.439 26.2009 36.779C25.8877 34.1517 26.008 31.2616 26.1139 28.7627L26.1139 28.7626L26.1139 28.7623L26.1148 28.7411V28.7395C26.116 28.7116 26.1173 28.6838 26.1185 28.6559C26.1301 28.3912 26.1416 28.1279 26.151 27.8708Z" stroke="white" stroke-width="2"/>
</svg>
